<?xml version="1.0" encoding="UTF-8"?>
<svg version="1.1" xmlns="http://www.w3.org/2000/svg" width="89" height="94">
<path d="M0 0 C1.4876738 -0.01925285 1.4876738 -0.01925285 3.00540161 -0.03889465 C4.61316971 -0.04997505 4.61316971 -0.04997505 6.25341797 -0.0612793 C7.91303055 -0.07338692 7.91303055 -0.07338692 9.60617065 -0.08573914 C11.95146112 -0.09957867 14.29677172 -0.11030141 16.64208984 -0.11816406 C20.21084397 -0.13533083 23.77866061 -0.1792142 27.34716797 -0.22338867 C29.62841117 -0.23351991 31.90966224 -0.24203466 34.19091797 -0.2487793 C35.25061798 -0.26628738 36.31031799 -0.28379547 37.40213013 -0.30183411 C44.18622077 -0.28219682 49.17432321 0.87626423 55.12060547 4.17700195 C55.12060547 4.83700195 55.12060547 5.49700195 55.12060547 6.17700195 C56.11060547 6.50700195 57.10060547 6.83700195 58.12060547 7.17700195 C64.99579306 15.22600206 65.42982091 23.75690702 65.38623047 34.0559082 C65.38814392 35.0674144 65.39005737 36.07892059 65.39202881 37.12107849 C65.39338205 39.24641165 65.3897462 41.37175332 65.38134766 43.49707031 C65.37062479 46.73366997 65.38127829 49.96971607 65.39404297 53.20629883 C65.39272144 55.28116983 65.39015918 57.3560405 65.38623047 59.4309082 C65.39027893 60.38945206 65.39432739 61.34799591 65.39849854 62.33558655 C65.34043932 70.7283422 64.32102747 77.29409048 59.12060547 84.17700195 C58.50185547 85.06387695 57.88310547 85.95075195 57.24560547 86.86450195 C53.03537154 91.44622712 47.82887312 92.94538381 41.76435852 93.32417297 C40.95290878 93.33401718 40.14145905 93.34386139 39.30541992 93.35400391 C37.91290764 93.37325676 37.91290764 93.37325676 36.49226379 93.39289856 C35.49949936 93.40028549 34.50673492 93.40767242 33.48388672 93.4152832 C31.93195869 93.42739082 31.93195869 93.42739082 30.34867859 93.43974304 C28.16077332 93.4535532 25.97284678 93.46428902 23.78491211 93.47216797 C21.55926145 93.483678 19.33363818 93.50411416 17.1081543 93.53369141 C13.87904244 93.57658011 10.65074885 93.59256722 7.42138672 93.6027832 C6.43874344 93.62029129 5.45610016 93.63779938 4.44367981 93.65583801 C-3.40027415 93.63153131 -10.37941576 92.06448444 -16.53564453 86.9855957 C-17.14408203 86.20313477 -17.75251953 85.42067383 -18.37939453 84.61450195 C-19.00845703 83.85008789 -19.63751953 83.08567383 -20.28564453 82.2980957 C-25.34409607 72.39196144 -24.18775788 60.35963318 -24.14013672 49.52490234 C-24.12940637 46.61770837 -24.14008234 43.71113042 -24.15283203 40.80395508 C-24.15151045 38.92700061 -24.14894809 37.05004652 -24.14501953 35.1730957 C-24.14906799 34.31864365 -24.15311646 33.46419159 -24.1572876 32.58384705 C-24.08100651 22.60595123 -22.73599492 13.78377743 -15.87939453 6.17700195 C-10.92517274 2.25295861 -6.37163985 0.07191426 0 0 Z " fill="#FCFDFD" transform="translate(23.87939453125,-0.177001953125)"/>
<path d="M0 0 C0 3 0 3 -1 6 C-1.10765172 7.75183783 -1.15874404 9.50740379 -1.17700195 11.26245117 C-1.18983719 12.3375444 -1.20267242 13.41263763 -1.21589661 14.52030945 C-1.22328354 15.68278702 -1.23067047 16.84526459 -1.23828125 18.04296875 C-1.246353 19.24053299 -1.25442474 20.43809723 -1.26274109 21.67195129 C-1.27658179 24.20975293 -1.287304 26.74757319 -1.29516602 29.28540039 C-1.31235484 33.15482186 -1.35624032 37.02338371 -1.40039062 40.89257812 C-1.41051976 43.35936872 -1.41903517 45.82616658 -1.42578125 48.29296875 C-1.44328934 49.44532516 -1.46079742 50.59768158 -1.47883606 51.78495789 C-1.46036296 58.67300686 -0.71158109 63.14633089 3 69 C5.14805352 71.09995699 5.14805352 71.09995699 7.5625 72.4375 C8.70912109 73.14712891 8.70912109 73.14712891 9.87890625 73.87109375 C13.17132041 75.62340994 15.82562152 76.13372389 19.49633789 76.19287109 C20.40480972 76.20893402 21.31328156 76.22499695 22.24928284 76.24154663 C26.41870222 76.28626567 30.5879646 76.32709723 34.75756836 76.35009766 C36.94843201 76.3666056 39.13924297 76.39382671 41.32983398 76.43212891 C44.50272322 76.48727623 47.67435036 76.50883379 50.84765625 76.5234375 C52.29822166 76.55744156 52.29822166 76.55744156 53.77809143 76.59213257 C60.77085307 76.57071523 66.18513244 74.96825049 72 71 C76.39997539 66.39480492 78.12415182 61.98524317 78.12939453 55.68994141 C78.13412277 54.06277695 78.13412277 54.06277695 78.13894653 52.40274048 C78.1369223 51.23085175 78.13489807 50.05896301 78.1328125 48.8515625 C78.13424759 47.04454361 78.13424759 47.04454361 78.13571167 45.20101929 C78.13639272 42.65061389 78.13454366 40.10020676 78.13037109 37.54980469 C78.12503113 33.64774671 78.13031386 29.74580434 78.13671875 25.84375 C78.13605777 23.36718725 78.1347762 20.89062456 78.1328125 18.4140625 C78.13584885 16.66230209 78.13584885 16.66230209 78.13894653 14.87515259 C78.13579437 13.78407196 78.13264221 12.69299133 78.12939453 11.56884766 C78.12859894 10.61193024 78.12780334 9.65501282 78.12698364 8.6690979 C78.00086058 6.01808863 77.59063428 3.58381887 77 1 C81.62075127 4.54257598 82.17744587 8.52055091 83 14 C83.26077637 17.62982913 83.28102333 21.24078369 83.265625 24.87890625 C83.26753845 25.89041245 83.2694519 26.90191864 83.27142334 27.94407654 C83.27277658 30.0694097 83.26914073 32.19475136 83.26074219 34.32006836 C83.25001932 37.55666802 83.26067282 40.79271412 83.2734375 44.02929688 C83.27211597 46.10416788 83.26955371 48.17903854 83.265625 50.25390625 C83.26967346 51.2124501 83.27372192 52.17099396 83.27789307 53.15858459 C83.21983386 61.55134025 82.200422 68.11708853 77 75 C76.38125 75.886875 75.7625 76.77375 75.125 77.6875 C70.91476607 82.26922516 65.70826765 83.76838186 59.64375305 84.14717102 C58.83230331 84.15701523 58.02085358 84.16685944 57.18481445 84.17700195 C55.79230217 84.19625481 55.79230217 84.19625481 54.37165833 84.21589661 C53.37889389 84.22328354 52.38612946 84.23067047 51.36328125 84.23828125 C49.81135323 84.25038887 49.81135323 84.25038887 48.22807312 84.26274109 C46.04016785 84.27655124 43.85224131 84.28728707 41.66430664 84.29516602 C39.43865598 84.30667605 37.21303271 84.3271122 34.98754883 84.35668945 C31.75843697 84.39957815 28.53014338 84.41556526 25.30078125 84.42578125 C24.31813797 84.44328934 23.33549469 84.46079742 22.32307434 84.47883606 C14.47912038 84.45452935 7.49997877 82.88748249 1.34375 77.80859375 C0.7353125 77.02613281 0.126875 76.24367188 -0.5 75.4375 C-1.1290625 74.67308594 -1.758125 73.90867187 -2.40625 73.12109375 C-7.46470154 63.21495949 -6.30836335 51.18263122 -6.26074219 40.34790039 C-6.25001183 37.44070641 -6.26068781 34.53412847 -6.2734375 31.62695312 C-6.27211592 29.74999866 -6.26955356 27.87304457 -6.265625 25.99609375 C-6.26967346 25.14164169 -6.27372192 24.28718964 -6.27789307 23.40684509 C-6.21190588 14.77543618 -5.46255133 6.91923168 0 0 Z " fill="#080808" transform="translate(6,9)"/>
<path d="M0 0 C1.65 0 3.3 0 5 0 C5 0.66 5 1.32 5 2 C5.99 1.34 6.98 0.68 8 0 C8.99 0 9.98 0 11 0 C11.33 0.99 11.66 1.98 12 3 C12.495 2.505 12.99 2.01 13.5 1.5 C17.01761333 -0.610568 19.99223826 -0.58429381 24 0 C26.4375 1.0625 26.4375 1.0625 28 3 C28.75 6.6875 28.75 6.6875 29 10 C25.04 10 21.08 10 17 10 C17.33 10.66 17.66 11.32 18 12 C21.3 12 24.6 12 28 12 C26 16 26 16 24.3125 17.3125 C20.92838082 18.31858949 18.40333226 17.80442399 15 17 C13.125 15.9375 13.125 15.9375 12 14 C11.46476861 11.31854373 11.2242729 8.73612933 11 6 C9.35 6.33 7.7 6.66 6 7 C5.67 10.63 5.34 14.26 5 18 C3.35 18 1.7 18 0 18 C0 12.06 0 6.12 0 0 Z " fill="#2165FF" transform="translate(29,37)"/>
<path d="M0 0 C4.62118099 3.54290543 5.18006455 7.51917875 6 13 C6.26133723 16.67660269 6.28101903 20.33471007 6.265625 24.01953125 C6.26753845 25.04052414 6.2694519 26.06151703 6.27142334 27.1134491 C6.27277617 29.2555669 6.26914322 31.39769316 6.26074219 33.53979492 C6.24997428 36.82033537 6.26069665 40.10033513 6.2734375 43.38085938 C6.27211683 45.46875121 6.26955635 47.5566427 6.265625 49.64453125 C6.26967346 50.62372025 6.27372192 51.60290924 6.27789307 52.61177063 C6.27158875 53.52339462 6.26528442 54.43501862 6.25878906 55.37426758 C6.25719788 56.17318924 6.25560669 56.9721109 6.25396729 57.79524231 C5.97222612 60.24111249 5.21991699 61.87854097 4 64 C3.01 64 2.02 64 1 64 C1.00222061 63.27194656 1.00444122 62.54389313 1.00672913 61.79377747 C1.02679013 54.92289964 1.04200376 48.0520262 1.05181217 41.18112659 C1.05702433 37.64897726 1.06409164 34.11685218 1.07543945 30.5847168 C1.08841195 26.52131928 1.093242 22.45794714 1.09765625 18.39453125 C1.10281754 17.1297847 1.10797882 15.86503815 1.11329651 14.56196594 C1.11337204 13.38111923 1.11344757 12.20027252 1.11352539 10.98364258 C1.115746 9.94661697 1.11796661 8.90959137 1.12025452 7.84114075 C1.00509993 5.12049128 0.61402376 2.64843958 0 0 Z " fill="#111111" transform="translate(83,10)"/>
<path d="M0 0 C3 2.1875 3 2.1875 5 5 C5 6.65 5 8.3 5 10 C1.04 10 -2.92 10 -7 10 C-6.67 10.66 -6.34 11.32 -6 12 C-2.7 12 0.6 12 4 12 C2 16 2 16 -1 18 C-4.61332604 18.4713034 -6.57577261 18.20289136 -9.875 16.625 C-12.68955726 13.14819397 -12.66188228 10.72772274 -12.41015625 6.3515625 C-12 4 -12 4 -10.5 1.375 C-6.99024297 -0.55536637 -3.8511571 -0.88462223 0 0 Z " fill="#0E58FF" transform="translate(71,37)"/>
<path d="M0 0 C4.95 0 9.9 0 15 0 C15 1.65 15 3.3 15 5 C12.03 5 9.06 5 6 5 C6 6.32 6 7.64 6 9 C7.98 9 9.96 9 12 9 C12 10.32 12 11.64 12 13 C9.69 13 7.38 13 5 13 C5 15.97 5 18.94 5 22 C3.35 22 1.7 22 0 22 C0 14.74 0 7.48 0 0 Z " fill="#175EFF" transform="translate(13,32)"/>
<path d="M0 0 C1.65 0 3.3 0 5 0 C5 0.66 5 1.32 5 2 C5.99 1.34 6.98 0.68 8 0 C8.99 0 9.98 0 11 0 C11 1.65 11 3.3 11 5 C9.35 5.66 7.7 6.32 6 7 C5.67 10.63 5.34 14.26 5 18 C3.35 18 1.7 18 0 18 C0 12.06 0 6.12 0 0 Z " fill="#0B56FF" transform="translate(29,37)"/>
<path d="M0 0 C0.66 0.33 1.32 0.66 2 1 C2 2.98 2 4.96 2 7 C-0.52475462 8.26237731 -2.31200466 8.09856404 -5.125 8.0625 C-6.03507812 8.05347656 -6.94515625 8.04445313 -7.8828125 8.03515625 C-8.58148438 8.02355469 -9.28015625 8.01195312 -10 8 C-10.33 7.01 -10.66 6.02 -11 5 C-7.04 5 -3.08 5 1 5 C0.67 3.35 0.34 1.7 0 0 Z " fill="#D2E0FF" transform="translate(57,42)"/>
<path d="M0 0 C0 3.18470342 -0.46025618 6.05023907 -1 9.1875 C-1.185625 10.27417969 -1.37125 11.36085938 -1.5625 12.48046875 C-1.706875 13.31191406 -1.85125 14.14335937 -2 15 C-2.99 15.33 -3.98 15.66 -5 16 C-5.61669998 9.09296024 -4.11242982 5.52240576 0 0 Z " fill="#141414" transform="translate(6,9)"/>
<path d="M0 0 C3.96 0 7.92 0 12 0 C11.67 0.99 11.34 1.98 11 3 C7.7 3 4.4 3 1 3 C0.67 2.01 0.34 1.02 0 0 Z " fill="#E5EDFF" transform="translate(64,47)"/>
<path d="M0 0 C4 4 4 4 4.171875 6.140625 C3.78125 8.09375 3.390625 10.046875 3 12 C2.67 12 2.34 12 2 12 C1.34 8.04 0.68 4.08 0 0 Z " fill="#1B1B1B" transform="translate(83,10)"/>
<path d="M0 0 C2.4375 0.375 2.4375 0.375 5 1 C5.33 1.66 5.66 2.32 6 3 C3.69 3 1.38 3 -1 3 C-0.67 2.01 -0.34 1.02 0 0 Z " fill="#EAF0FF" transform="translate(65,41)"/>
</svg>
