<svg width="11" height="11" viewBox="0 0 11 11" fill="none" xmlns="http://www.w3.org/2000/svg">
<path d="M5.12719 0.211433C5.2143 -0.0704706 5.61333 -0.0704699 5.70045 0.211433L6.76489 3.65605C6.80374 3.78176 6.91995 3.86748 7.05152 3.86748H10.5269C10.8139 3.86748 10.9371 4.23168 10.709 4.40588L7.87191 6.57326C7.772 6.64959 7.73028 6.78011 7.7674 6.90023L8.84491 10.3871C8.93115 10.6662 8.60827 10.8914 8.37617 10.7141L5.59594 8.5902C5.48842 8.50806 5.33922 8.50806 5.2317 8.5902L2.45147 10.7141C2.21936 10.8914 1.89649 10.6662 1.98273 10.3871L3.06024 6.90023C3.09736 6.78011 3.05564 6.64959 2.95573 6.57326L0.118587 4.40588C-0.109447 4.23168 0.013747 3.86748 0.300707 3.86748H3.77612C3.90769 3.86748 4.0239 3.78176 4.06275 3.65605L5.12719 0.211433Z" fill="#0054A5"/>
</svg>
