<?xml version="1.0" encoding="UTF-8"?>
<svg version="1.1" xmlns="http://www.w3.org/2000/svg" width="177" height="187">
<path d="M0 0 C0.98797073 -0.00671722 1.97594147 -0.01343445 2.99385071 -0.02035522 C6.24692878 -0.03928984 9.4998 -0.0432573 12.75292969 -0.04541016 C15.02585941 -0.05184172 17.2987883 -0.05857035 19.57171631 -0.06558228 C24.33282387 -0.07754407 29.09385894 -0.08126427 33.85498047 -0.08007812 C39.93532922 -0.07987512 46.01520964 -0.10716382 52.09544754 -0.14162254 C56.78997911 -0.16393628 61.48439881 -0.16791427 66.17897797 -0.16685867 C68.41951866 -0.1692084 70.66006272 -0.17799625 72.90055084 -0.19352341 C95.27602204 -0.33406171 95.27602204 -0.33406171 103.92480469 4.29052734 C104.80968567 4.73562653 105.69456665 5.18072571 106.60626221 5.63931274 C117.8871853 11.53111895 124.83181516 21.47878894 128.96743774 33.26092529 C130.35384285 38.21690844 130.21990089 43.17136961 130.21533203 48.28369141 C130.22204926 49.36919785 130.22876648 50.45470428 130.23568726 51.57310486 C130.25463735 55.15083432 130.2585901 58.72837586 130.26074219 62.30615234 C130.26717259 64.80328446 130.27390113 67.30041583 130.28091431 69.79754639 C130.29287991 75.0294367 130.2965959 80.26126103 130.29541016 85.49316406 C130.29434287 90.85103241 130.30840868 96.20861206 130.33642578 101.56640625 C130.36985088 108.05195602 130.38351859 114.53724688 130.3821907 121.02288055 C130.38454243 123.4867067 130.39334163 125.95053584 130.40885544 128.41431427 C130.42857509 131.86976946 130.42265293 135.32431352 130.41064453 138.77978516 C130.42188354 139.78587326 130.43312256 140.79196136 130.44470215 141.82853699 C130.33664741 154.139837 125.26301555 165.15832895 117.11621094 174.32568359 C107.33834579 183.57501549 95.21872177 187.59431161 82.04907227 187.58105469 C81.08221497 187.58777191 80.11535767 187.59448914 79.11920166 187.60140991 C75.93586018 187.62034269 72.75273016 187.62431205 69.56933594 187.62646484 C67.34364233 187.6328971 65.11794955 187.63962577 62.89225769 187.64663696 C58.22950278 187.65859871 53.5668219 187.66231902 48.90405273 187.66113281 C42.9538344 187.66092993 37.00409533 187.68820533 31.05399036 187.72267723 C26.45635332 187.74501005 21.85883035 187.74896836 17.26114464 187.74791336 C15.06887858 187.75026074 12.87660896 187.75903512 10.68439674 187.77457809 C-6.70862503 187.88633038 -20.37343964 186.48090166 -34.07128906 174.55224609 C-41.18977489 167.14838667 -47.1678983 155.98543096 -47.22236633 145.59361267 C-47.22952164 144.65321136 -47.23667694 143.71281006 -47.24404907 142.74391174 C-47.24673798 141.71894089 -47.24942688 140.69397003 -47.25219727 139.63793945 C-47.25876846 138.55287109 -47.26533966 137.46780273 -47.27210999 136.34985352 C-47.29183273 132.75585866 -47.30350488 129.16190562 -47.31347656 125.56787109 C-47.31755209 124.3385895 -47.32162762 123.1093079 -47.32582664 121.84277534 C-47.34453555 116.00417907 -47.35910017 110.16559916 -47.36743861 104.32697862 C-47.37622271 98.27768302 -47.39547112 92.22863914 -47.43188477 86.17944336 C-47.47039336 79.67791985 -47.48913361 73.17662313 -47.49364281 66.6749897 C-47.49850079 64.20278239 -47.51009211 61.7305784 -47.5286808 59.2584362 C-47.5531466 55.78831861 -47.55209287 52.31905521 -47.54516602 48.84887695 C-47.55797607 47.83807571 -47.57078613 46.82727448 -47.58398438 45.7858429 C-47.49827872 33.93509439 -42.87137915 22.57808317 -34.81738281 13.84130859 C-24.59123258 4.14409716 -13.91658961 -0.01370035 0 0 Z " fill="#0551FF" transform="translate(47.0751953125,-0.29052734375)"/>
<path d="M0 0 C1.21171875 -0.02578125 2.4234375 -0.0515625 3.671875 -0.078125 C9.13015873 0.4224163 12.24175442 2.19592508 16 6.125 C20.33582193 12.1469749 20.25 14.30468445 20.25 22.25 C11.34 22.25 2.43 22.25 -6.75 22.25 C-5.29711014 26.8341963 -5.29711014 26.8341963 -3.75 28.25 C0.26657143 28.47918242 0.26657143 28.47918242 4.25 28.25 C4.91 27.59 5.57 26.93 6.25 26.25 C9.0703125 26.0546875 9.0703125 26.0546875 12.375 26.125 C13.47070312 26.14304687 14.56640625 26.16109375 15.6953125 26.1796875 C16.53835937 26.20289062 17.38140625 26.22609375 18.25 26.25 C17.49962244 31.12745412 16.0186086 32.99529257 12.25 36.25 C6.54451679 40.30157813 1.02507084 40.10915753 -5.75 39.25 C-10.57130666 37.54434906 -13.60075879 34.94711809 -16.1875 30.5625 C-16.703125 29.469375 -17.21875 28.37625 -17.75 27.25 C-18.08 26.59 -18.41 25.93 -18.75 25.25 C-19.50253897 18.2621381 -19.42087353 12.65590246 -15.1875 6.87109375 C-10.42496612 1.50030147 -7.02235103 0.08889052 0 0 Z " fill="#F9FAFF" transform="translate(97.75,81.75)"/>
<path d="M0 0 C4.6805662 2.43389442 7.30871958 5.79533965 9.6953125 10.3515625 C9.6953125 13.9815625 9.6953125 17.6115625 9.6953125 21.3515625 C1.1153125 21.3515625 -7.4646875 21.3515625 -16.3046875 21.3515625 C-14.85179764 25.9357588 -14.85179764 25.9357588 -13.3046875 27.3515625 C-9.28811607 27.58074492 -9.28811607 27.58074492 -5.3046875 27.3515625 C-4.6446875 26.6915625 -3.9846875 26.0315625 -3.3046875 25.3515625 C-0.484375 25.15625 -0.484375 25.15625 2.8203125 25.2265625 C3.91601562 25.24460937 5.01171875 25.26265625 6.140625 25.28125 C6.98367187 25.30445312 7.82671875 25.32765625 8.6953125 25.3515625 C7.92715176 30.23837231 6.5643851 32.15537209 2.6953125 35.3515625 C-3.09213584 38.70828254 -8.68122209 39.34269977 -15.3046875 38.3515625 C-20.73408493 36.3672142 -24.64683492 32.74631304 -27.4609375 27.7265625 C-29.50367985 21.97662107 -29.26929574 15.22641041 -27.2421875 9.4765625 C-21.03757504 -0.53087696 -11.33937269 -3.19039977 0 0 Z " fill="#FAFBFF" transform="translate(147.3046875,82.6484375)"/>
<path d="M0 0 C10.23 0 20.46 0 31 0 C31 2.97 31 5.94 31 9 C24.4 9 17.8 9 11 9 C11 12.63 11 16.26 11 20 C15.95 20 20.9 20 26 20 C26 22.97 26 25.94 26 29 C21.05 29 16.1 29 11 29 C11 35.27 11 41.54 11 48 C7.37 48 3.74 48 0 48 C0 32.16 0 16.32 0 0 Z " fill="#FDFEFF" transform="translate(20,72)"/>
<path d="M0 0 C3.63 0 7.26 0 11 0 C11.33 1.65 11.66 3.3 12 5 C12.86625 4.175 13.7325 3.35 14.625 2.5 C17.95446812 -0.67092202 18.6462063 0 24 0 C24 3.96 24 7.92 24 12 C20.19140625 12.63476562 20.19140625 12.63476562 16.3828125 13.26953125 C13.65587522 13.83051301 13.65587522 13.83051301 12 17 C11.63423946 19.31923274 11.63423946 19.31923274 11.5859375 21.88671875 C11.52792969 23.2934082 11.52792969 23.2934082 11.46875 24.72851562 C11.4378125 25.70498047 11.406875 26.68144531 11.375 27.6875 C11.31699219 29.16959961 11.31699219 29.16959961 11.2578125 30.68164062 C11.16354601 33.1207861 11.0806841 35.56036747 11 38 C7.37 38 3.74 38 0 38 C0 25.46 0 12.92 0 0 Z " fill="#FBFCFF" transform="translate(55,82)"/>
<path d="M0 0 C2.875 2.375 2.875 2.375 5 5 C5 5.66 5 6.32 5 7 C0.05 7 -4.9 7 -10 7 C-9.67 5.35 -9.34 3.7 -9 2 C-5.48175489 -0.34549674 -4.14224306 -0.57991403 0 0 Z " fill="#1E63FF" transform="translate(141,91)"/>
<path d="M0 0 C2.875 1.8125 2.875 1.8125 5 4 C5 4.99 5 5.98 5 7 C0.05 7 -4.9 7 -10 7 C-8.45127064 0.80508257 -6.50524943 -0.91073492 0 0 Z " fill="#1D62FF" transform="translate(101,91)"/>
</svg>
