<svg width="13" height="17" viewBox="0 0 13 17" fill="none" xmlns="http://www.w3.org/2000/svg">
<path d="M6.30005 0.149597C7.15781 0.149597 7.86063 0.835341 7.8606 1.68378V3.40448C9.98377 4.05714 11.5323 6.00546 11.5325 8.30585V11.9387L12.3215 13.3918C12.5026 13.7251 12.4922 14.1198 12.2942 14.4435C12.0963 14.7668 11.7483 14.9591 11.3665 14.9592H8.29614C8.16907 15.9335 7.3214 16.6857 6.30005 16.6857C5.27866 16.6857 4.43102 15.9335 4.30396 14.9592H1.23364C0.851805 14.9591 0.503756 14.7668 0.305908 14.4435C0.107857 14.1198 0.0975009 13.7252 0.278564 13.3918L1.06763 11.9387V8.30585C1.06785 6.00546 2.61639 4.05716 4.7395 3.40448V1.68378C4.7395 0.835351 5.44229 0.149603 6.30005 0.149597ZM5.36841 14.9592C5.48157 15.3572 5.85427 15.6535 6.30005 15.6535C6.74577 15.6535 7.11846 15.3572 7.23169 14.9592H5.36841ZM1.20142 13.8791C1.1984 13.8846 1.19682 13.889 1.19653 13.8908C1.19627 13.8927 1.19719 13.8946 1.19751 13.8967C1.19828 13.9017 1.19994 13.9068 1.20142 13.9094L1.20239 13.9103C1.20392 13.9127 1.20731 13.9175 1.21216 13.9211C1.21441 13.9227 1.21724 13.9241 1.21997 13.925C1.22254 13.9258 1.22679 13.9269 1.23364 13.9269H11.3665C11.3733 13.9269 11.3776 13.9258 11.3801 13.925C11.3828 13.9241 11.3857 13.9227 11.3879 13.9211C11.3927 13.9176 11.3961 13.9129 11.3977 13.9103L11.4036 13.8967C11.4039 13.8946 11.4038 13.8926 11.4036 13.8908C11.4033 13.889 11.4017 13.8846 11.3987 13.8791L10.6809 12.5568H1.91919L1.20142 13.8791ZM6.30005 4.20233C3.98953 4.20234 2.11475 6.0461 2.1145 8.30585V11.5246H10.4856V8.30585C10.4853 6.04609 8.61057 4.20233 6.30005 4.20233ZM6.30005 1.18182C6.01404 1.18182 5.78638 1.41003 5.78638 1.68378V3.19745C5.95543 3.18114 6.12664 3.1701 6.30005 3.1701C6.47341 3.17011 6.64462 3.18114 6.81372 3.19745V1.68378C6.81372 1.41004 6.58604 1.18184 6.30005 1.18182Z" fill="white" stroke="white" stroke-width="0.3"/>
<path d="M6.29907 4.87811C6.58504 4.87835 6.82153 5.10714 6.82153 5.39471C6.82143 5.68212 6.585 5.9101 6.29907 5.91034C4.94822 5.91034 3.85376 6.98851 3.85376 8.30682C3.85362 8.59435 3.61642 8.82245 3.33032 8.82245C3.04424 8.82243 2.80702 8.59433 2.80688 8.30682C2.80688 6.41378 4.37654 4.87811 6.29907 4.87811Z" fill="white" stroke="white" stroke-width="0.3"/>
</svg>
