<?xml version="1.0" encoding="UTF-8"?>
<svg version="1.1" xmlns="http://www.w3.org/2000/svg" width="240" height="240">
<path d="M0 0 C19.82384116 16.7620437 33.94096689 37.92050258 41 63 C41.32226562 64.14082031 41.64453125 65.28164062 41.9765625 66.45703125 C49.39369043 98.44772788 42.6541848 131.23089379 26 159 C9.68180657 184.61049802 -15.87594765 202.80256102 -45 211 C-46.14082031 211.32226562 -47.28164062 211.64453125 -48.45703125 211.9765625 C-80.44772788 219.39369043 -113.23089379 212.6541848 -141 196 C-166.61049802 179.68180657 -184.80256102 154.12405235 -193 125 C-193.32226562 123.85917969 -193.64453125 122.71835938 -193.9765625 121.54296875 C-201.39369043 89.55227212 -194.6541848 56.76910621 -178 29 C-161.68180657 3.38950198 -136.12405235 -14.80256102 -107 -23 C-105.85917969 -23.32226562 -104.71835938 -23.64453125 -103.54296875 -23.9765625 C-67.79304365 -32.26527753 -28.32108416 -23.31825792 0 0 Z " fill="#E5ECFE" transform="translate(196,26)"/>
<path d="M0 0 C18.81 0 37.62 0 57 0 C57 9.24 57 18.48 57 28 C66.57 28 76.14 28 86 28 C86 56.71 86 85.42 86 115 C85.01 115 84.02 115 83 115 C83 115.99 83 116.98 83 118 C82.01 118 81.02 118 80 118 C80 118.66 80 119.32 80 120 C53.6 120 27.2 120 0 120 C0 119.34 0 118.68 0 118 C-1.98 118 -3.96 118 -6 118 C-6 79.72 -6 41.44 -6 2 C-4.02 2 -2.04 2 0 2 C0 1.34 0 0.68 0 0 Z " fill="#4EA9F5" transform="translate(80,60)"/>
<path d="M0 0 C0.99 0 1.98 0 3 0 C3 0.66 3 1.32 3 2 C3.99 2 4.98 2 6 2 C6 2.99 6 3.98 6 5 C6.99 5 7.98 5 9 5 C9 5.99 9 6.98 9 8 C9.99 8 10.98 8 12 8 C12 8.99 12 9.98 12 11 C12.99 11 13.98 11 15 11 C15 11.99 15 12.98 15 14 C15.99 14 16.98 14 18 14 C18 14.99 18 15.98 18 17 C18.66 17 19.32 17 20 17 C20 17.99 20 18.98 20 20 C20.99 20 21.98 20 23 20 C23 20.99 23 21.98 23 23 C23.99 23 24.98 23 26 23 C26 23.66 26 24.32 26 25 C26.99 25 27.98 25 29 25 C29 25.99 29 26.98 29 28 C19.43 28 9.86 28 0 28 C0 18.76 0 9.52 0 0 Z " fill="#C0DEFB" transform="translate(137,60)"/>
<path d="M0 0 C8.58 0 17.16 0 26 0 C26 9.24 26 18.48 26 28 C25.01 28 24.02 28 23 28 C23 26.02 23 24.04 23 22 C22.01 22 21.02 22 20 22 C20 21.01 20 20.02 20 19 C18.35 19 16.7 19 15 19 C15 18.34 15 17.68 15 17 C14.01 17 13.02 17 12 17 C12 15.02 12 13.04 12 11 C11.01 11 10.02 11 9 11 C9 10.01 9 9.02 9 8 C8.01 8 7.02 8 6 8 C6 7.01 6 6.02 6 5 C5.01 5 4.02 5 3 5 C3 4.01 3 3.02 3 2 C2.01 2 1.02 2 0 2 C0 1.34 0 0.68 0 0 Z " fill="#4384CF" transform="translate(140,89)"/>
<path d="M0 0 C17.16 0 34.32 0 52 0 C52 1.98 52 3.96 52 6 C34.84 6 17.68 6 0 6 C0 4.02 0 2.04 0 0 Z " fill="#DCEDFC" transform="translate(94,140)"/>
<path d="M0 0 C17.16 0 34.32 0 52 0 C52 1.98 52 3.96 52 6 C34.84 6 17.68 6 0 6 C0 4.02 0 2.04 0 0 Z " fill="#DCEDFC" transform="translate(94,117)"/>
<path d="M0 0 C17.16 0 34.32 0 52 0 C52 1.65 52 3.3 52 5 C34.84 5 17.68 5 0 5 C0 3.35 0 1.7 0 0 Z " fill="#E3F0FC" transform="translate(94,129)"/>
<path d="M0 0 C9.57 0 19.14 0 29 0 C29 1.65 29 3.3 29 5 C19.43 5 9.86 5 0 5 C0 3.35 0 1.7 0 0 Z " fill="#E2F0FC" transform="translate(94,152)"/>
<path d="M0 0 C0.99 0 1.98 0 3 0 C3 0.66 3 1.32 3 2 C29.4 2 55.8 2 83 2 C83 1.34 83 0.68 83 0 C83.99 0 84.98 0 86 0 C86 0.99 86 1.98 86 3 C57.62 3 29.24 3 0 3 C0 2.01 0 1.02 0 0 Z " fill="#AAD2FA" transform="translate(77,178)"/>
<path d="M0 0 C19.8 0 39.6 0 60 0 C60 0.33 60 0.66 60 1 C41.19 1 22.38 1 3 1 C3 1.66 3 2.32 3 3 C2.01 3 1.02 3 0 3 C0 2.01 0 1.02 0 0 Z " fill="#AAD2FA" transform="translate(77,59)"/>
<path d="M0 0 C1.98 0.66 3.96 1.32 6 2 C6 2.99 6 3.98 6 5 C6.99 5 7.98 5 9 5 C9 5.99 9 6.98 9 8 C9.66 8 10.32 8 11 8 C11 8.99 11 9.98 11 11 C10.01 11 9.02 11 8 11 C8 10.01 8 9.02 8 8 C7.01 8 6.02 8 5 8 C5 7.01 5 6.02 5 5 C4.01 5 3.02 5 2 5 C2 4.01 2 3.02 2 2 C1.34 2 0.68 2 0 2 C0 1.34 0 0.68 0 0 Z " fill="#B6D8FC" transform="translate(146,69)"/>
<path d="M0 0 C0.99 0 1.98 0 3 0 C3 0.66 3 1.32 3 2 C4.65 2 6.3 2 8 2 C8.33 2.99 8.66 3.98 9 5 C8.01 5 7.02 5 6 5 C6 4.34 6 3.68 6 3 C4.02 3 2.04 3 0 3 C0 2.01 0 1.02 0 0 Z " fill="#7CBDF7" transform="translate(74,175)"/>
<path d="M0 0 C0.99 0 1.98 0 3 0 C3 1.98 3 3.96 3 6 C2.01 6 1.02 6 0 6 C0 4.02 0 2.04 0 0 Z " fill="#7FBFF8" transform="translate(74,62)"/>
</svg>
